<?xml version="1.0" standalone="no"?>
<!DOCTYPE svg PUBLIC "-//W3C//DTD SVG 20010904//EN"
 "http://www.w3.org/TR/2001/REC-SVG-20010904/DTD/svg10.dtd">
<svg version="1.0" xmlns="http://www.w3.org/2000/svg"
 width="800.000000pt" height="800.000000pt" viewBox="0 0 800.000000 800.000000"
 preserveAspectRatio="xMidYMid meet">
<metadata>
Created by potrace 1.11, written by Peter Selinger 2001-2013
</metadata>
<g transform="translate(0.000000,800.000000) scale(0.100000,-0.100000)"
fill="#000000" stroke="none">
<path d="M3745 7814 c-639 -65 -1134 -222 -1635 -517 -285 -169 -510 -345
-760 -596 -602 -605 -971 -1369 -1077 -2231 -25 -204 -25 -666 0 -870 90 -729
363 -1377 822 -1950 112 -141 365 -399 500 -511 580 -483 1222 -763 1980 -866
190 -25 735 -25 925 0 473 64 879 191 1285 401 1010 522 1740 1490 1965 2606
140 695 85 1411 -160 2077 -67 179 -236 524 -338 686 -566 898 -1484 1524
-2517 1716 -237 44 -333 53 -645 56 -168 1 -323 1 -345 -1z m176 -301 c-25
-47 -65 -72 -121 -75 -45 -2 -55 -6 -54 -20 1 -10 2 -30 3 -44 1 -25 3 -26 58
-22 55 3 57 2 65 -27 13 -47 4 -55 -57 -55 l-55 0 0 -70 0 -70 -34 0 -33 0 -6
78 c-4 42 -9 129 -13 193 l-7 116 73 2 c41 1 76 4 79 6 2 3 28 5 58 5 48 0 53
-2 44 -17z m343 9 c2 -4 1 -62 -2 -130 l-5 -123 -31 2 c-17 2 -33 -1 -35 -5
-2 -4 13 -28 33 -51 28 -35 36 -52 36 -84 0 -23 -3 -41 -8 -41 -4 0 -48 41
-97 90 -49 50 -92 90 -95 90 -3 0 -5 -15 -4 -33 1 -19 0 -46 -3 -60 -5 -23
-10 -27 -41 -27 l-35 0 6 107 c4 58 7 144 7 190 l0 84 135 -2 c74 0 137 -4
139 -7z m176 -18 c36 -5 46 -13 86 -70 l46 -64 -13 -130 -12 -130 -39 0 c-42
0 -42 1 -29 82 9 53 10 52 -71 63 l-46 7 -7 -48 c-3 -27 -7 -56 -8 -64 -2 -16
-45 -25 -64 -13 -8 6 -6 50 9 173 11 91 22 175 24 188 5 25 -5 25 124 6z m259
-108 l53 -84 81 53 c45 29 83 52 84 52 1 -1 -5 -34 -14 -72 -8 -39 -25 -119
-38 -178 -12 -59 -25 -110 -28 -114 -10 -9 -77 7 -77 19 0 5 6 36 14 67 8 31
17 68 20 83 l6 28 -32 -20 c-18 -11 -35 -20 -38 -20 -3 0 -14 14 -24 31 -23
38 -29 30 -45 -62 -7 -36 -16 -71 -20 -78 -11 -17 -76 0 -75 20 2 19 76 359
79 359 1 0 26 -38 54 -84z m-1289 22 c33 -24 60 -46 60 -50 0 -3 -16 -16 -35
-28 l-34 -21 -38 25 c-35 24 -73 33 -85 20 -6 -5 7 -72 14 -80 3 -2 30 1 62 7
31 7 59 10 62 7 3 -3 7 -21 11 -41 l5 -36 -61 -12 c-45 -8 -61 -16 -61 -28 1
-37 12 -40 100 -20 47 10 90 19 96 19 10 0 29 -59 21 -67 -2 -1 -55 -14 -118
-28 -63 -14 -124 -27 -136 -30 -19 -5 -23 1 -33 52 -15 79 -60 284 -66 304 -3
13 10 19 63 32 99 22 107 21 173 -25z m-276 -20 c3 -7 27 -86 55 -175 28 -88
51 -166 51 -172 0 -7 -52 16 -116 49 -64 34 -118 59 -121 56 -3 -3 7 -40 21
-82 14 -43 23 -81 18 -85 -4 -3 -21 -11 -39 -17 -29 -10 -33 -9 -38 11 -23 77
-88 286 -96 305 -15 37 -11 46 14 30 12 -8 54 -32 92 -53 39 -21 85 -46 103
-57 17 -11 32 -18 32 -15 0 2 -13 46 -30 98 -16 51 -28 94 -27 95 6 6 53 23
65 23 7 1 14 -5 16 -11z m1933 -29 c53 -16 75 -29 79 -43 4 -12 17 -43 30 -70
13 -27 22 -51 20 -53 -1 -2 -20 -4 -42 -6 -37 -2 -40 0 -59 40 -12 26 -30 46
-46 52 -25 8 -27 7 -38 -29 -6 -20 -11 -40 -11 -43 0 -3 27 -14 60 -23 51 -14
60 -20 55 -35 -3 -11 -8 -28 -11 -39 -6 -24 -16 -24 -69 -5 -54 19 -60 19 -73
-9 -11 -24 -9 -25 84 -56 93 -31 95 -33 89 -59 -3 -14 -10 -29 -13 -33 -6 -6
-236 61 -261 76 -5 3 17 86 50 183 32 98 59 180 59 182 0 2 6 1 13 -2 6 -2 45
-15 84 -28z m-1417 -68 c0 -43 -2 -44 -76 -56 l-42 -6 -4 38 c-3 21 -3 40 -1
42 3 5 73 17 106 20 13 1 17 -7 17 -38z m-869 -76 l72 -35 49 -116 c26 -64 48
-120 48 -124 0 -4 -8 -10 -17 -13 -10 -2 -25 -8 -33 -11 -12 -5 -20 6 -34 46
-10 29 -22 57 -26 61 -6 7 -99 -25 -119 -40 -2 -1 8 -29 22 -62 l26 -59 -30
-13 c-18 -7 -33 -8 -38 -3 -4 5 -23 45 -41 89 -18 44 -48 115 -67 159 -19 43
-32 84 -30 89 3 9 117 64 139 66 3 1 39 -15 79 -34z m2941 -275 c-30 -58 -57
-107 -59 -109 -2 -3 -19 3 -38 12 -20 9 -37 17 -39 17 -2 0 4 -26 13 -58 18
-58 18 -59 -4 -102 -12 -24 -24 -39 -27 -34 -3 5 -22 61 -43 124 -20 63 -39
117 -41 119 -2 2 -15 -22 -30 -53 -14 -31 -27 -56 -29 -56 -1 0 -16 7 -33 16
l-32 15 46 87 c26 48 61 114 79 147 18 33 38 70 44 83 l12 23 119 -63 118 -62
-56 -106z m-3157 105 c31 -60 70 -133 86 -161 l29 -52 -32 -20 c-18 -12 -36
-18 -40 -14 -3 4 -24 41 -47 82 -40 74 -40 74 -50 46 -6 -15 -11 -32 -11 -38
0 -6 -9 -8 -22 -4 -73 20 -72 25 -22 -64 25 -45 44 -83 42 -84 -21 -16 -54
-36 -59 -36 -9 0 -181 321 -176 327 3 2 42 -8 87 -23 45 -14 86 -22 90 -18 4
5 18 43 30 84 22 74 30 94 34 88 2 -2 29 -52 61 -113z m3335 -68 l65 -42 13
-82 14 -83 -59 -91 c-88 -138 -83 -133 -115 -106 l-28 23 36 53 c20 29 34 54
32 55 -42 32 -100 66 -107 62 -5 -4 -22 -26 -38 -51 -31 -50 -38 -52 -70 -27
l-22 17 102 157 c56 87 104 158 107 158 3 0 34 -19 70 -43z m260 -183 c67 -52
66 -51 75 -152 l7 -72 -78 -98 c-42 -53 -79 -99 -80 -101 -4 -4 -218 162 -218
170 -1 6 226 299 231 299 2 0 30 -21 63 -46z m-4298 -275 c68 -71 123 -133
123 -137 0 -4 -43 -49 -96 -100 l-96 -92 -85 87 c-46 49 -106 111 -131 139
l-47 51 95 92 c52 50 98 91 104 91 5 0 65 -59 133 -131z m386 97 l20 -34 -27
-13 c-14 -7 -28 -15 -31 -16 -3 -2 -14 11 -24 29 -19 31 -19 31 4 50 30 24 35
23 58 -16z m4107 -37 c-5 -57 -7 -60 -120 -187 l-80 -90 -27 25 -27 26 126
138 c69 77 127 139 129 139 2 0 1 -23 -1 -51z m184 -123 c51 -52 92 -98 90
-103 -2 -5 -63 -66 -135 -136 l-130 -126 -97 97 -98 98 133 132 c73 72 135
132 138 132 3 0 47 -42 99 -94z m-4874 -181 l110 -104 -25 -25 -25 -24 -137
129 -137 129 52 0 52 -1 110 -104z m-124 -18 c14 -12 58 -48 97 -80 40 -32 72
-63 72 -68 0 -6 -39 -58 -86 -115 l-87 -104 -61 52 c-33 28 -100 83 -148 121
l-87 70 29 36 c80 99 69 92 150 98 41 3 77 7 79 9 8 7 16 3 42 -19z m-127
-304 c58 -38 105 -72 105 -78 0 -5 -7 -20 -17 -33 l-18 -23 -53 36 c-30 19
-55 34 -56 33 -32 -46 -65 -99 -65 -106 0 -6 23 -24 50 -41 l50 -31 -17 -28
c-9 -15 -18 -28 -18 -30 -2 -3 -287 187 -304 203 -11 11 -7 23 29 79 44 68 41
66 130 79 67 11 81 6 184 -60z m3521 -3 c39 -5 117 -14 174 -19 65 -7 120 -19
150 -32 36 -17 74 -23 176 -28 124 -7 134 -9 210 -45 150 -72 209 -83 259 -51
l26 17 0 -45 c0 -24 -6 -49 -12 -55 -17 -13 -103 -22 -218 -23 -71 -1 -119 6
-190 24 -90 24 -110 26 -110 8 0 -12 74 -38 160 -56 108 -24 178 -44 185 -55
3 -5 -11 -12 -32 -15 -21 -4 -46 -9 -57 -12 -34 -9 5 -23 68 -23 52 0 57 -2
46 -16 -11 -12 -11 -17 1 -28 18 -17 75 -36 109 -36 14 0 53 -9 87 -20 63 -22
83 -45 83 -96 0 -45 -31 -133 -57 -165 -24 -28 -26 -29 -38 -12 -7 10 -15 41
-19 68 -8 56 -36 103 -75 128 -14 9 -46 30 -71 46 -29 20 -78 38 -139 52 -82
19 -112 21 -230 15 -85 -4 -168 -15 -221 -28 -76 -19 -120 -22 -225 -18 -68 3
-195 34 -265 65 -71 32 -98 35 -149 19 -11 -4 -11 -7 0 -20 11 -13 25 -15 70
-10 34 4 60 3 63 -3 7 -10 119 -47 251 -82 85 -23 133 -24 208 -4 32 8 86 15
120 15 34 1 94 6 132 12 139 21 208 9 334 -58 106 -57 131 -79 131 -116 0 -15
5 -28 10 -28 6 0 10 -6 10 -13 0 -8 -23 -19 -52 -26 -29 -8 -60 -20 -68 -27
-15 -12 -82 -44 -95 -44 -3 0 -5 15 -5 33 0 27 -12 44 -77 109 -65 63 -85 77
-120 82 -23 3 -48 3 -57 0 -24 -9 -7 -33 22 -29 36 4 50 -5 126 -78 50 -47 67
-71 72 -99 6 -35 4 -37 -35 -57 -22 -12 -53 -20 -68 -20 -22 1 -23 3 -7 6 42
8 57 84 28 142 -22 45 -69 63 -152 59 l-67 -3 56 -13 c69 -16 119 -66 119
-119 0 -23 -54 -83 -74 -83 -20 0 -21 19 -1 26 10 4 15 20 15 51 0 54 -14 49
-29 -10 -10 -41 -35 -76 -46 -65 -3 3 2 24 10 48 17 47 20 79 6 65 -4 -6 -16
-34 -27 -62 -17 -49 -35 -66 -48 -44 -3 5 1 21 8 37 8 16 17 40 20 54 6 22 6
23 -6 8 -7 -10 -24 -36 -38 -58 -17 -29 -31 -40 -48 -40 -18 0 -23 4 -18 16 3
9 9 28 12 42 5 25 4 24 -17 -8 -31 -46 -33 -48 -105 -55 -134 -15 -295 58
-416 188 -40 42 -44 52 -44 95 1 69 -38 114 -159 178 -27 15 -67 41 -87 60
-20 18 -53 37 -73 43 -41 11 -168 0 -223 -20 -38 -13 -158 -7 -174 9 -6 6 7
12 39 17 54 8 318 90 348 109 42 26 94 37 200 43 67 3 116 10 125 18 9 8 59
16 125 19 217 13 392 43 416 72 14 17 1 18 -38 3 -15 -7 -140 -18 -278 -25
-271 -14 -465 -46 -590 -97 -69 -29 -335 -110 -341 -104 -6 6 103 84 178 128
62 37 71 39 121 33 50 -6 55 -5 75 21 12 15 22 34 22 41 0 56 368 102 585 74z
m1673 -103 l-32 -27 -23 27 -22 28 32 27 32 27 22 -27 23 -27 -32 -28z m-5472
-93 c57 -30 104 -61 104 -68 0 -6 -7 -22 -16 -34 -23 -33 -11 -37 47 -19 50
17 53 16 95 -5 25 -12 41 -25 37 -29 -5 -4 -48 -19 -98 -35 -49 -15 -103 -33
-119 -39 l-29 -12 49 -28 c27 -16 50 -30 52 -31 2 -1 -4 -16 -13 -33 -18 -36
-2 -41 -162 50 -55 31 -109 60 -120 63 -10 4 -29 15 -42 25 l-24 18 64 117
c35 64 65 116 67 116 2 0 51 -25 108 -56z m5893 -75 c-17 -50 -29 -93 -27 -94
2 -1 42 -14 91 -29 48 -15 87 -28 87 -30 0 -2 -28 -18 -62 -36 -35 -18 -109
-57 -165 -87 l-103 -54 -17 35 c-9 20 -15 38 -12 40 2 2 40 22 84 44 l79 40
-41 12 c-40 12 -41 13 -31 47 5 19 8 37 6 39 -2 2 -38 -14 -80 -36 -80 -42
-81 -42 -107 7 -10 20 -6 24 57 56 37 20 110 58 162 86 52 28 98 50 101 51 4
0 -6 -41 -22 -91z m-3159 -127 c0 -5 19 -17 43 -26 40 -16 41 -18 21 -29 -39
-22 -120 -101 -156 -152 -19 -27 -47 -81 -62 -120 -40 -103 -41 -106 -75 -152
-17 -24 -38 -43 -47 -43 -15 0 -134 106 -134 121 0 12 81 143 106 169 12 14
30 41 38 60 8 19 27 47 43 61 37 34 129 98 156 109 29 11 67 12 67 2z m282
-77 c-99 -71 -204 -253 -242 -418 -22 -99 -75 -215 -191 -417 -49 -87 -70
-106 -175 -159 l-42 -20 -48 82 c-27 45 -59 100 -72 122 l-23 40 40 -40 c23
-21 41 -34 41 -27 0 20 -77 98 -131 132 -63 41 -73 73 -60 196 10 93 1 130
-20 78 -15 -39 -5 -208 14 -237 8 -12 26 -35 41 -50 14 -15 26 -34 26 -41 0
-7 12 -31 28 -52 33 -48 132 -211 132 -218 0 -17 -44 -2 -73 24 -19 17 -39 30
-45 30 -26 0 -131 136 -132 171 0 9 -11 33 -25 54 -16 23 -23 44 -20 56 4 11
-5 53 -20 94 -24 64 -27 86 -23 152 5 82 48 203 73 203 7 0 27 -10 46 -23 31
-20 50 -30 133 -68 42 -20 129 -101 181 -170 42 -56 85 -155 85 -198 0 -11 6
-26 14 -34 8 -8 22 -31 31 -52 l16 -39 16 23 c15 22 14 29 -1 90 -25 98 -33
123 -47 159 -11 26 -11 36 -1 50 22 30 83 166 89 197 5 27 40 95 48 95 8 0 -8
-79 -30 -150 -41 -132 -55 -228 -21 -149 l15 34 -6 -55 c-7 -67 12 -59 26 10
18 85 81 231 141 327 15 23 9 40 -10 28 -6 -3 -28 -41 -50 -83 -41 -77 -41
-77 -25 21 4 27 2 37 -7 37 -14 1 39 50 120 111 44 33 51 44 46 63 -8 34 18
45 98 43 l68 -2 -28 -20z m3071 -7 c3 -7 16 -40 30 -74 l24 -60 -37 -73 -36
-73 -118 -50 c-66 -28 -121 -47 -126 -42 -5 5 -11 20 -15 34 -5 23 -1 27 45
45 29 11 54 24 57 28 4 7 -35 117 -42 117 -2 0 -24 -9 -50 -20 -26 -11 -52
-20 -59 -20 -12 0 -41 49 -33 56 6 7 332 142 343 143 7 1 14 -5 17 -11z
m-2811 -33 c37 -12 92 -41 123 -64 53 -40 55 -43 55 -90 0 -31 -5 -53 -15 -61
-8 -7 -22 -39 -32 -73 -16 -59 -110 -216 -147 -247 -10 -8 -34 -39 -53 -70
-41 -64 -205 -230 -228 -230 -9 0 -18 -7 -21 -15 -5 -13 -8 -13 -21 1 -14 13
-14 17 1 33 17 19 21 41 7 41 -4 0 -46 -43 -92 -95 -72 -81 -94 -99 -153 -125
-37 -17 -82 -34 -100 -37 -17 -3 -40 -11 -51 -18 -34 -20 -66 -26 -200 -34
-150 -10 -187 -1 -99 23 101 27 263 114 317 170 26 28 47 57 47 66 1 8 23 44
51 80 70 91 153 265 184 385 54 208 114 297 247 363 68 34 70 34 180 -3z
m-3533 -262 c1 -17 -10 -28 -41 -44 -71 -36 -79 -71 -22 -89 42 -14 46 -11 68
57 10 31 22 50 29 48 7 -3 24 -9 39 -14 l27 -10 -20 -57 c-20 -59 -18 -70 15
-76 16 -2 24 12 49 87 17 50 31 92 33 93 1 2 18 -1 37 -7 l34 -11 -45 -130
c-25 -72 -51 -130 -57 -130 -10 0 -269 86 -326 108 l-26 10 26 78 26 78 70 32
c75 35 83 33 84 -23z m3781 18 c18 -34 11 -76 -21 -124 -30 -45 -145 -157
-162 -157 -4 0 8 20 27 45 19 25 49 81 66 123 36 87 61 132 72 132 4 0 12 -9
18 -19z m2604 -135 c-36 -65 -64 -119 -61 -122 2 -3 40 7 83 21 44 13 87 25
96 25 18 0 36 -57 22 -69 -13 -11 -346 -113 -351 -107 -3 2 23 56 57 120 33
64 57 116 53 116 -4 0 -44 -11 -88 -25 -44 -14 -81 -25 -82 -25 -5 0 -24 72
-20 76 2 3 65 23 138 45 74 23 152 47 174 53 22 7 41 12 43 11 1 -1 -28 -55
-64 -119z m-2446 0 c40 -32 156 -76 200 -76 11 0 41 -9 67 -20 26 -11 51 -20
56 -20 19 0 8 20 -18 33 l-27 15 53 11 c28 6 72 11 96 11 l45 0 0 -39 c0 -22
-5 -43 -10 -46 -6 -4 -23 -30 -37 -58 -25 -48 -28 -62 -29 -181 l-2 -129 49
-131 c27 -72 55 -142 63 -156 7 -14 16 -42 20 -62 10 -55 48 -95 111 -114 47
-15 66 -16 147 -6 51 7 124 23 162 36 38 13 75 22 82 19 31 -12 30 -223 -2
-285 -9 -18 -37 -64 -61 -102 -40 -61 -52 -72 -112 -99 -57 -27 -76 -31 -144
-30 -63 1 -83 6 -109 25 -76 53 -138 150 -138 213 0 28 -4 35 -20 35 -13 0
-22 -9 -26 -27 -4 -16 -15 -44 -25 -63 -10 -19 -21 -65 -24 -101 -7 -69 8
-234 27 -281 14 -37 130 -138 160 -139 12 0 31 -4 42 -8 17 -7 16 -9 -10 -30
-16 -12 -54 -38 -84 -58 l-55 -35 -140 5 c-151 6 -413 37 -564 67 -62 13 -123
34 -182 63 -49 24 -89 39 -89 33 0 -21 112 -115 170 -142 33 -15 60 -33 60
-40 0 -6 -13 -38 -30 -69 -16 -31 -30 -69 -29 -84 0 -29 -1 -31 54 63 19 32
35 65 35 73 0 12 7 13 27 8 16 -4 30 -8 32 -11 2 -2 -13 -37 -33 -78 -52 -108
-86 -264 -54 -254 7 3 20 36 29 75 9 39 29 95 44 124 15 30 31 67 34 84 7 30
29 42 56 31 11 -4 9 -14 -10 -48 -27 -50 -75 -173 -75 -195 0 -31 28 8 55 75
39 99 73 152 95 152 21 0 27 -15 10 -25 -26 -16 -81 -166 -61 -165 3 0 19 29
34 63 31 69 72 125 83 114 4 -4 0 -24 -10 -44 -9 -20 -19 -59 -22 -87 -4 -50
-4 -50 9 -21 8 17 23 56 32 88 10 32 24 57 32 57 17 0 17 -4 -7 -50 -11 -22
-20 -47 -20 -57 0 -15 4 -14 20 7 11 14 27 40 35 58 16 31 43 47 31 17 -3 -8
-9 -22 -12 -30 -3 -8 -1 -15 6 -15 6 0 17 14 23 30 10 27 16 30 52 30 53 0 66
-10 70 -51 6 -74 25 -149 49 -198 14 -28 26 -57 26 -65 0 -8 6 -21 13 -28 7
-7 27 -38 45 -69 17 -31 45 -73 62 -94 28 -36 30 -43 30 -127 0 -94 -10 -125
-70 -213 -30 -44 -56 -113 -46 -123 4 -3 20 10 36 29 22 26 29 30 30 16 0 -10
-7 -20 -15 -23 -19 -8 -105 -155 -105 -180 1 -16 5 -14 28 12 15 18 43 58 62
90 l35 59 3 -65 c5 -105 22 -97 22 11 0 133 18 190 74 243 39 35 46 48 46 79
0 44 8 46 41 11 27 -29 94 -66 154 -84 22 -6 119 -15 216 -19 l176 -7 84 -43
c89 -46 147 -88 148 -107 1 -7 -31 -46 -70 -88 -53 -57 -75 -74 -84 -66 -7 6
-21 8 -31 4 -11 -3 -5 5 14 21 17 14 32 30 32 35 0 12 -134 100 -168 110 -26
8 -26 8 7 9 52 1 181 -32 181 -46 0 -18 10 -16 26 5 12 15 13 14 14 -10 0 -16
3 -28 6 -28 9 0 54 49 54 59 0 22 -40 36 -128 44 -54 4 -121 11 -151 14 -30 3
-72 0 -92 -6 -38 -11 -99 -55 -99 -71 0 -4 -16 -32 -35 -60 -23 -34 -35 -64
-35 -84 1 -17 -2 -59 -6 -93 -8 -70 14 -161 47 -194 17 -17 17 -18 -15 -37
-46 -27 -73 -12 -108 58 -31 63 -36 131 -14 182 8 18 27 68 41 111 28 79 79
167 118 201 23 19 33 76 13 76 -13 0 -64 -53 -115 -119 -19 -24 -54 -93 -78
-155 -36 -89 -45 -127 -49 -191 -5 -74 -3 -84 23 -129 16 -28 42 -56 60 -66
l31 -17 -50 -32 c-218 -143 -626 -304 -908 -358 l-92 -17 -34 37 c-19 20 -34
45 -34 56 0 10 -7 24 -15 31 -8 7 -15 21 -15 32 0 10 -7 35 -16 56 -9 20 -17
69 -18 109 -2 47 -8 76 -18 86 -12 12 -16 57 -21 224 -4 185 -9 223 -37 348
-17 77 -40 172 -51 210 -11 39 -31 108 -44 155 -12 47 -29 103 -38 125 -8 22
-20 74 -27 115 -6 41 -16 94 -21 117 -14 65 -11 80 25 133 37 54 51 98 41 130
-7 21 -30 27 -40 10 -7 -12 -75 -13 -90 -2 -6 4 -21 41 -34 82 -13 41 -45 111
-71 155 -26 44 -57 112 -70 150 -12 39 -33 99 -46 134 -19 47 -22 66 -14 76 6
8 18 11 26 8 16 -6 19 12 4 22 -5 3 -10 32 -10 64 0 51 5 66 40 120 22 34 54
89 70 122 27 53 50 70 50 35 0 -14 82 -134 152 -220 l47 -60 -29 -20 c-43 -30
-40 -54 4 -27 18 12 42 21 52 21 15 -1 13 -5 -11 -23 -54 -39 -100 -85 -93
-92 3 -4 37 16 74 44 66 50 95 60 124 41 12 -7 11 -10 -5 -16 -67 -23 -105
-45 -105 -59 0 -9 4 -13 10 -10 6 3 7 -1 4 -9 -9 -24 4 -20 78 25 l68 41 107
-2 c60 -1 115 -3 123 -3 36 0 317 42 340 51 14 5 30 10 35 10 15 1 23 59 31
222 l7 145 -32 95 c-52 152 -96 234 -155 283 -129 109 -247 179 -328 196 -32
7 -58 15 -58 19 0 4 19 20 42 37 23 16 73 58 110 93 l68 64 0 -55 c0 -31 5
-68 12 -84 11 -26 13 -21 20 62 4 50 9 102 11 116 4 33 27 89 36 89 3 0 25
-16 49 -34z m542 -66 c0 -5 -4 -10 -10 -10 -5 0 -10 5 -10 10 0 6 5 10 10 10
6 0 10 -4 10 -10z m125 -27 c42 -21 113 -91 135 -133 34 -66 89 -217 106 -290
13 -57 15 -104 11 -226 -3 -84 -8 -158 -12 -164 -3 -5 -19 -10 -35 -10 -32 0
-31 -16 -10 148 12 89 6 138 -31 262 -30 98 -78 183 -138 245 -60 62 -87 79
-143 89 -21 4 -40 11 -43 16 -9 15 21 52 58 72 33 18 51 16 102 -9z m-4742
-27 c29 -8 105 -27 169 -41 l117 -27 -6 -31 c-3 -18 -8 -35 -12 -39 -3 -4 -40
2 -81 12 -104 27 -106 27 -82 -15 l21 -34 -35 -21 c-19 -12 -34 -23 -34 -25 0
-2 36 -12 79 -21 44 -9 85 -20 92 -24 18 -12 1 -70 -21 -70 -15 0 -281 61
-333 76 -15 5 -1 18 60 56 43 28 80 52 82 54 2 2 -3 14 -11 26 -101 154 -101
150 -5 124z m3687 -85 c0 -5 -7 -12 -16 -15 -14 -5 -15 -4 -4 9 14 17 20 19
20 6z m3020 -86 l16 -80 -44 -60 c-24 -33 -47 -61 -51 -63 -4 -1 -16 13 -26
32 l-19 34 27 41 c30 44 29 98 0 87 -8 -3 -22 -6 -31 -6 -37 0 -41 -12 -28
-77 l13 -62 -39 -6 c-22 -4 -41 -5 -42 -3 -2 1 -7 28 -12 58 -8 51 -11 55 -36
55 -16 0 -29 -3 -29 -8 -1 -4 6 -48 16 -98 10 -49 16 -91 14 -93 -2 -2 -18 -6
-35 -9 l-31 -6 -27 136 c-15 74 -26 137 -24 138 7 7 335 73 353 72 17 -2 23
-15 35 -82z m-2140 40 c0 -8 -4 -15 -8 -15 -5 0 -9 7 -9 15 0 8 4 15 9 15 4 0
8 -7 8 -15z m107 -27 c-3 -7 -5 -2 -5 12 0 14 2 19 5 13 2 -7 2 -19 0 -25z
m-40 0 c-3 -8 -6 -5 -6 6 -1 11 2 17 5 13 3 -3 4 -12 1 -19z m-1007 8 c0 -2
-8 -10 -17 -17 -16 -13 -17 -12 -4 4 13 16 21 21 21 13z m1111 -58 c6 -12 22
-33 35 -47 28 -30 29 -35 10 -50 -11 -9 -12 -6 -9 16 3 16 1 23 -4 17 -14 -20
-42 -12 -40 10 2 16 -3 20 -20 19 -18 -2 -23 2 -23 20 0 42 32 51 51 15z
m-156 -108 c0 -18 -5 -35 -12 -37 -14 -5 -28 40 -19 63 10 27 31 9 31 -26z
m-725 21 c0 -14 -28 -33 -39 -27 -16 10 -1 36 20 36 10 0 19 -4 19 -9z m-3747
-55 c53 -7 100 -16 103 -19 3 -3 3 -19 0 -35 -7 -28 -8 -29 -54 -21 -81 13
-80 14 -87 -38 -4 -27 -9 -56 -11 -65 -4 -13 5 -18 43 -23 81 -11 84 -13 81
-48 -2 -18 -6 -32 -11 -31 -4 0 -89 11 -188 24 l-181 24 7 76 c4 41 9 79 12
83 2 4 34 27 70 52 49 32 73 43 92 39 14 -3 70 -11 124 -18z m4717 14 c0 -5
-5 -10 -11 -10 -5 0 -7 5 -4 10 3 6 8 10 11 10 2 0 4 -4 4 -10z m-736 -64 c91
-92 150 -288 162 -543 6 -120 5 -135 -11 -153 -11 -12 -31 -20 -49 -20 -17 0
-81 -8 -143 -17 -62 -9 -116 -14 -119 -10 -3 3 10 26 31 51 60 73 93 188 105
365 11 169 2 247 -35 322 -14 26 -25 53 -25 59 0 17 38 -7 84 -54z m-198 18
c-4 -9 -9 -15 -11 -12 -3 3 -3 13 1 22 4 9 9 15 11 12 3 -3 3 -13 -1 -22z
m845 -4 c10 -6 19 -17 19 -24 0 -8 6 -16 14 -19 18 -7 30 -91 16 -117 -7 -14
-21 -20 -45 -20 -47 0 -75 37 -75 101 0 76 25 103 71 79z m-806 -20 c-10 -11
-20 -18 -23 -15 -7 6 18 35 31 35 5 0 2 -9 -8 -20z m-616 -15 c24 7 30 -12 7
-21 -8 -3 -18 -19 -21 -35 -4 -17 -27 -78 -52 -137 -25 -59 -54 -132 -66 -162
-11 -30 -37 -77 -57 -105 -48 -65 -60 -88 -61 -122 l-1 -28 -8 25 c-11 34 -12
108 -2 112 5 2 26 30 49 63 43 65 88 162 123 265 19 57 27 81 47 150 3 12 6
12 12 1 5 -8 17 -11 30 -6z m-780 -23 c5 -10 30 -30 55 -43 26 -13 46 -27 46
-30 0 -6 -66 -39 -80 -39 -5 0 -11 10 -13 23 -4 19 -4 18 -6 -5 0 -18 -7 -28
-16 -28 -12 0 -15 14 -15 70 0 69 10 87 29 52z m4053 -36 c4 -28 5 -53 2 -58
-3 -4 -20 -8 -38 -8 -29 0 -34 4 -40 31 -3 17 -6 45 -6 61 0 28 2 29 37 26 37
-3 38 -4 45 -52z m-3374 -23 c-17 -38 -43 -105 -59 -151 -18 -53 -48 -111 -84
-162 -51 -73 -68 -109 -46 -95 7 4 21 -143 16 -162 -1 -1 -13 16 -28 39 -23
37 -27 52 -27 120 l0 77 41 38 c43 40 95 137 125 237 16 51 68 126 87 126 3 0
-8 -30 -25 -67z m1641 41 c-6 -8 -15 -14 -20 -14 -14 0 -11 28 4 33 20 7 29
-4 16 -19z m-923 -12 c-17 -16 -18 -16 -5 5 7 12 15 20 18 17 3 -2 -3 -12 -13
-22z m-540 -96 c-15 -35 -36 -49 -36 -23 0 14 27 105 37 127 15 31 14 -69 -1
-104z m1474 74 c0 -12 -28 -25 -36 -17 -9 9 6 27 22 27 8 0 14 -5 14 -10z
m-1716 -42 c-21 -68 -96 -208 -129 -243 -39 -42 -55 -79 -55 -130 0 -23 -3
-27 -10 -15 -13 20 -13 100 1 138 5 16 19 32 29 35 18 5 100 155 100 184 0 12
48 52 63 53 5 0 5 -10 1 -22z m483 -10 c41 -20 62 -66 69 -149 6 -69 5 -76
-18 -99 -19 -22 -30 -25 -65 -22 -58 6 -113 64 -113 120 0 21 -7 48 -16 61
-15 21 -15 26 1 61 10 22 25 41 34 44 24 7 77 -1 108 -16z m325 -20 c-7 -7
-12 -8 -12 -2 0 6 3 14 7 17 3 4 9 5 12 2 2 -3 -1 -11 -7 -17z m-882 -3 c0 -3
-8 -18 -17 -32 -10 -15 -29 -49 -43 -77 -15 -31 -36 -56 -53 -64 -18 -9 -30
-24 -34 -43 -3 -16 -10 -32 -14 -35 -14 -8 -10 -107 6 -134 8 -14 14 -20 15
-15 0 6 9 -6 21 -25 11 -19 27 -40 36 -47 12 -10 12 -16 -5 -50 -11 -21 -24
-67 -31 -103 -8 -50 -17 -69 -36 -83 -32 -23 -32 -33 0 -41 22 -6 25 -12 25
-51 0 -25 3 -45 8 -45 4 0 23 23 42 50 l35 49 23 -51 c12 -28 22 -58 22 -68 0
-9 20 -59 44 -111 39 -84 52 -127 71 -221 11 -58 133 -98 214 -70 17 6 31 7
31 2 0 -13 -75 -105 -105 -128 -15 -12 -45 -29 -66 -39 -42 -18 -49 -29 -21
-35 9 -3 -2 -8 -26 -12 -60 -11 -113 23 -241 156 -57 59 -108 108 -115 108 -6
0 -37 24 -69 54 -60 57 -95 76 -106 57 -4 -6 -24 22 -46 64 -35 68 -41 75 -69
75 l-30 0 33 34 c66 68 90 204 91 521 1 151 -2 198 -15 228 -8 20 -17 37 -20
37 -10 0 -45 -40 -45 -52 -1 -35 -18 24 -24 81 -6 62 -5 63 17 58 12 -4 69 -7
127 -8 85 -2 120 2 178 21 79 24 96 22 67 -10 -10 -11 -14 -20 -8 -20 5 0 18
9 29 21 26 28 104 69 104 54z m1803 -26 c4 -15 2 -19 -10 -15 -8 3 -17 6 -19
6 -2 0 -4 7 -4 15 0 23 27 18 33 -6z m1897 -36 c1 -32 3 -91 7 -130 3 -42 1
-73 -4 -73 -5 0 -24 15 -42 34 -26 27 -33 44 -38 90 -3 31 -9 59 -13 61 -4 2
-24 1 -45 -2 l-37 -6 4 -57 4 -58 -35 -6 c-19 -3 -37 -3 -40 0 -3 3 -8 31 -11
62 l-5 57 -62 -3 c-60 -4 -62 -3 -69 23 -4 14 -3 30 2 35 5 5 74 12 154 16 80
4 147 8 149 10 2 2 22 4 43 4 l38 0 0 -57z m-2810 2 c-7 -8 -19 -15 -27 -15
-11 0 -10 5 4 24 11 14 22 21 27 16 5 -6 4 -15 -4 -25z m-1453 -32 c-3 -10 -5
-4 -5 12 0 17 2 24 5 18 2 -7 2 -21 0 -30z m-2500 17 c33 0 33 0 33 -46 l0
-47 48 45 c45 42 49 44 97 40 l50 -4 -99 -93 -99 -92 33 -6 c18 -4 47 -7 66
-7 30 0 32 -2 29 -27 -2 -16 -4 -31 -4 -34 -1 -4 -29 -5 -63 -3 -35 2 -121 7
-191 10 l-128 6 5 67 c3 36 5 97 6 135 l0 69 92 -7 c50 -3 106 -6 125 -6z
m3967 -16 c30 -12 16 -24 -26 -24 -40 1 -42 2 -24 15 22 17 27 18 50 9z m-10
-60 c9 -3 16 -10 16 -15 0 -10 -31 -12 -55 -3 -13 5 -14 8 -3 15 16 10 22 11
42 3z m876 -14 c0 -5 -7 -10 -16 -10 -8 0 -12 5 -9 10 3 6 10 10 16 10 5 0 9
-4 9 -10z m-1602 -35 c-6 -14 -13 -23 -15 -21 -5 5 15 46 22 46 3 0 -1 -11 -7
-25z m1597 -15 c3 -5 -1 -10 -9 -10 -9 0 -16 5 -16 10 0 6 4 10 9 10 6 0 13
-4 16 -10z m-890 -10 c-3 -5 -12 -7 -20 -3 -21 7 -19 13 6 13 11 0 18 -4 14
-10z m-22 -37 c-7 -2 -19 -2 -25 0 -7 3 -2 5 12 5 14 0 19 -2 13 -5z m2825
-59 l32 -5 0 -122 c0 -67 -4 -127 -8 -132 -4 -7 -51 -9 -128 -7 l-121 4 5 46
5 46 -41 -33 c-23 -18 -44 -37 -47 -42 -4 -5 -29 -9 -58 -9 l-52 0 93 93 c50
51 92 95 92 99 0 3 -15 5 -33 3 -18 -2 -45 -1 -60 2 -23 5 -27 10 -27 39 l0
33 158 -5 c86 -3 172 -7 190 -10z m-2815 -1 c-7 -2 -19 -2 -25 0 -7 3 -2 5 12
5 14 0 19 -2 13 -5z m-772 -31 c-12 -22 -41 -48 -41 -36 0 8 40 54 47 54 2 0
-1 -8 -6 -18z m-3299 -126 c3 -12 6 -40 7 -63 l1 -43 46 0 46 0 -4 60 c-2 40
1 60 8 60 6 0 26 3 43 6 l31 7 0 -64 0 -64 67 0 68 0 2 -32 c1 -32 0 -33 -40
-33 -23 0 -111 -3 -194 -7 l-153 -6 0 85 c0 47 -3 107 -7 134 l-6 49 39 -34
c21 -19 42 -44 46 -55z m4033 63 c11 -17 -1 -21 -15 -4 -8 9 -8 15 -2 15 6 0
14 -5 17 -11z m-27 -40 c14 -22 10 -35 -6 -25 -12 7 -23 46 -13 46 3 0 12 -9
19 -21z m-77 -93 c-23 -7 -35 -6 -44 4 -10 10 -7 12 16 8 19 -4 27 -1 27 10 0
12 2 12 16 1 15 -12 14 -15 -15 -23z m-761 -17 c12 -29 11 -32 -18 -62 l-32
-32 0 31 c0 36 18 94 30 94 4 0 13 -14 20 -31z m3728 -79 c10 0 12 -10 8 -40
-19 -129 -13 -117 -83 -167 l-65 -46 -116 12 c-65 7 -123 15 -129 17 -8 2 -13
19 -13 40 0 40 -11 38 101 19 l36 -7 7 63 c7 70 1 78 -49 79 -59 1 -71 8 -67
44 l4 32 176 -23 c98 -12 183 -23 190 -23z m-3700 -17 c-4 -10 -38 -12 -38 -2
0 12 35 29 38 19 2 -5 2 -13 0 -17z m-3004 -44 c13 -64 8 -88 -19 -95 -41 -10
-55 1 -55 45 0 22 -3 46 -6 54 -4 12 3 17 28 20 18 2 36 5 39 5 4 1 9 -12 13
-29z m3035 -84 c0 -5 -6 1 -14 15 -8 14 -14 36 -14 50 0 20 3 17 14 -15 8 -22
15 -44 14 -50z m-2880 -72 c18 -94 39 -208 37 -209 -2 -2 -341 -67 -355 -68
-10 -1 -20 23 -31 82 l-17 82 44 58 c25 31 49 58 54 60 5 2 16 -12 25 -31 16
-33 16 -35 -11 -75 -19 -29 -25 -49 -21 -66 6 -23 8 -23 48 -14 23 5 43 10 44
11 2 1 -3 30 -10 64 l-13 63 33 6 c18 3 37 3 42 0 5 -3 13 -31 17 -61 6 -50 9
-55 31 -55 35 0 38 18 20 105 -23 109 -24 105 39 114 6 0 16 -29 24 -66z
m6346 -72 l169 -38 -82 -52 c-45 -29 -82 -55 -82 -57 0 -2 23 -38 50 -80 28
-42 49 -78 48 -80 -2 -1 -84 16 -184 39 l-181 41 8 34 c4 18 9 35 11 37 2 2
41 -5 87 -16 46 -11 86 -17 88 -15 3 3 -2 15 -11 28 -23 32 -20 41 15 62 39
23 29 31 -63 47 -36 7 -72 15 -78 19 -18 11 -2 70 18 70 9 -1 93 -18 187 -39z
m-1922 -47 c21 -6 23 -44 2 -44 -12 0 -80 40 -95 57 -5 6 59 -4 93 -13z
m-1443 -29 c0 -5 -5 -3 -10 5 -5 8 -10 20 -10 25 0 6 5 3 10 -5 5 -8 10 -19
10 -25z m-750 15 c-36 -12 -60 -12 -60 0 0 6 19 10 43 9 36 -1 38 -2 17 -9z
m785 -125 c15 -12 28 -75 16 -75 -5 0 -11 7 -15 15 -3 8 -13 15 -22 15 -11 0
-14 5 -10 16 3 9 6 28 7 42 0 16 3 21 6 12 4 -8 12 -19 18 -25z m-2983 -7
c-62 -104 -112 -208 -100 -208 7 0 47 11 88 24 l75 25 12 -27 c7 -15 12 -32
13 -38 0 -10 -347 -120 -355 -112 -2 1 28 56 67 121 39 65 69 119 67 121 -2 2
-46 -10 -98 -26 -51 -16 -97 -26 -101 -21 -4 4 -11 22 -14 38 l-7 30 98 28
c54 15 134 38 178 52 102 31 100 31 77 -7z m2531 -131 c22 -46 33 -76 62 -176
l7 -24 -76 5 c-43 3 -81 9 -86 14 -5 5 -3 41 4 84 12 74 13 175 2 208 -12 35
63 -61 87 -111z m3704 7 c107 -35 172 -61 169 -68 -3 -6 -15 -43 -27 -81 -23
-76 -13 -67 -135 -121 l-32 -13 -4 40 c-4 39 -2 42 37 61 44 23 55 34 55 60 0
14 -45 38 -71 38 -4 0 -18 -26 -29 -59 l-22 -59 -34 11 c-19 6 -34 13 -34 17
0 4 9 32 19 63 l19 56 -29 10 c-34 12 -35 11 -69 -102 l-24 -78 -30 7 c-17 3
-33 8 -35 10 -8 7 84 264 93 264 6 0 88 -25 183 -56z m-1897 -41 c0 -32 3 -96
6 -143 l6 -85 -37 60 c-20 33 -46 83 -57 110 -12 28 -30 60 -41 72 l-19 22 38
6 c22 4 44 8 49 10 6 2 20 4 33 4 20 1 22 -3 22 -56z m-195 0 c3 -21 22 -70
41 -109 37 -74 39 -86 36 -174 l-2 -55 -20 25 c-32 40 -78 142 -85 185 -7 46
-6 145 1 157 11 18 23 6 29 -29z m-1440 -59 c25 -35 65 -77 90 -95 25 -18 44
-34 42 -35 -1 -2 -32 1 -67 6 -36 5 -84 10 -106 10 l-41 0 -7 68 c-4 37 -9 77
-12 89 -5 19 -2 22 25 21 27 -1 38 -11 76 -64z m-492 -31 c-13 -2 -33 -2 -45
0 -13 2 -3 4 22 4 25 0 35 -2 23 -4z m-2098 -43 c6 -23 2 -27 -44 -44 -28 -10
-54 -22 -57 -28 -3 -5 4 -34 16 -64 25 -60 27 -61 103 -22 l38 19 14 -33 c7
-18 10 -34 7 -36 -4 -1 -83 -33 -177 -71 l-170 -69 -29 74 -29 74 35 72 35 73
119 47 c65 25 122 43 126 40 4 -4 9 -18 13 -32z m2098 13 c-13 -2 -33 -2 -45
0 -13 2 -3 4 22 4 25 0 35 -2 23 -4z m2117 -150 c29 -43 73 -96 98 -118 l45
-39 -39 -17 c-55 -25 -71 -23 -88 9 -8 15 -31 43 -50 62 -35 33 -36 37 -35
100 1 60 5 80 14 80 1 0 26 -35 55 -77z m-2535 49 c50 -6 230 -16 400 -22 171
-6 360 -15 420 -20 61 -5 187 -11 281 -12 l172 -3 22 -70 c12 -38 30 -97 40
-130 11 -33 24 -89 31 -125 6 -36 22 -101 36 -144 23 -74 24 -88 18 -198 l-7
-119 -52 -29 c-58 -33 -109 -80 -85 -80 8 0 37 16 64 34 28 19 51 33 52 32 1
-1 0 -18 -3 -37 -5 -30 -12 -37 -50 -53 -25 -10 -49 -26 -54 -35 -8 -15 -2
-14 38 5 54 26 72 13 28 -20 -52 -39 -99 -87 -92 -93 4 -4 17 5 29 19 23 27
77 65 77 54 0 -3 -20 -27 -45 -53 -39 -40 -70 -99 -59 -112 2 -2 19 10 39 28
47 41 67 41 63 -1 -2 -17 -10 -34 -18 -36 -13 -5 -13 -3 -1 12 25 30 2 30 -36
0 -35 -29 -60 -66 -34 -49 7 4 3 -11 -8 -34 -24 -46 -26 -61 -8 -61 6 0 24 20
39 45 15 25 34 45 43 45 25 0 17 -19 -30 -68 -53 -54 -63 -94 -12 -44 46 45
56 40 14 -7 -56 -62 -73 -91 -58 -101 10 -6 9 -13 -4 -34 -25 -38 -2 -33 45
10 22 20 43 34 46 31 3 -3 -2 -11 -12 -18 -9 -8 -48 -43 -85 -79 l-67 -65 -6
50 c-11 87 -10 97 13 265 19 138 20 166 9 175 -12 8 -12 27 -2 115 7 58 13
131 13 163 1 41 7 66 21 85 26 36 39 101 40 193 0 67 -4 84 -34 140 -23 45
-43 69 -67 81 -19 10 -44 26 -55 36 -21 18 -65 25 -275 47 -79 8 -117 34 -121
82 -2 28 -8 39 -22 41 -24 5 -36 -14 -36 -59 0 -40 31 -79 80 -101 l28 -12
-38 -27 c-21 -16 -42 -35 -47 -43 -9 -16 -2 -16 -418 -11 -310 4 -385 8 -477
30 -73 17 -132 5 -150 -29 -6 -12 -19 -30 -29 -42 -15 -16 -20 -40 -23 -115
-2 -52 -9 -128 -15 -169 -6 -41 -16 -121 -22 -178 l-11 -102 -38 32 c-50 43
-56 89 -40 295 7 87 16 221 21 298 17 272 26 371 36 390 10 19 21 20 205 19
106 0 234 -6 283 -12z m2592 -4 c-3 -8 -6 -5 -6 6 -1 11 2 17 5 13 3 -3 4 -12
1 -19z m-4147 -203 c0 -3 -36 -23 -80 -45 -45 -22 -78 -45 -75 -50 3 -4 19
-11 35 -15 33 -7 35 -11 20 -51 -6 -15 -8 -29 -6 -32 3 -2 30 10 61 27 96 54
102 55 121 20 9 -17 12 -35 7 -39 -8 -7 -323 -170 -323 -166 0 3 49 152 55
168 6 14 -8 21 -84 44 -60 18 -88 31 -81 38 5 5 78 44 162 87 l152 77 18 -29
c10 -16 18 -32 18 -34z m5343 -10 l-25 -45 -32 25 c-18 14 -38 25 -44 25 -6 0
-14 5 -17 10 -9 15 33 29 92 29 l52 1 -26 -45z m431 -55 c82 -44 152 -80 157
-80 20 0 16 -23 -14 -77 -17 -32 -41 -74 -51 -94 -43 -81 -34 -80 -151 -19
-58 30 -105 60 -105 65 1 6 7 21 15 35 22 38 19 40 -32 25 -63 -19 -85 -19
-122 3 -33 18 -40 32 -17 32 14 0 228 68 234 75 3 2 -21 16 -52 31 l-55 26 15
29 c8 16 18 29 22 29 4 0 74 -36 156 -80z m-560 -19 c12 -12 27 -21 32 -21 6
0 15 -5 21 -11 21 -21 -14 -59 -53 -59 -45 0 -64 -32 -32 -54 26 -19 17 -22
-12 -4 -31 20 -48 -4 -21 -31 l21 -21 -21 -35 c-12 -19 -23 -35 -26 -35 -3 0
-16 9 -30 20 -30 24 -71 26 -79 5 -4 -8 3 -33 15 -55 26 -50 26 -62 2 -84 -26
-24 -53 -14 -91 35 -18 21 -38 39 -45 39 -8 0 -21 8 -30 17 -16 16 -14 18 39
45 31 16 59 35 62 43 4 8 24 20 46 26 38 10 40 12 34 42 -4 17 -11 36 -16 41
-23 23 -184 -56 -290 -143 -25 -21 -94 -29 -104 -13 -6 10 17 47 76 121 39 50
124 110 156 111 7 0 29 8 50 17 50 23 112 32 201 28 57 -3 78 -8 95 -24z
m-1094 -168 c0 -53 -24 -113 -44 -113 -18 0 -21 11 -6 26 5 5 13 45 17 88 5
69 8 77 20 61 7 -11 13 -38 13 -62z m-1512 40 c35 -13 48 -25 68 -64 43 -85
29 -204 -30 -264 -35 -35 -53 -31 -23 5 37 44 47 110 17 110 -5 0 -11 -9 -15
-19 -9 -30 -56 -72 -102 -93 -40 -17 -57 -38 -33 -38 6 0 10 -4 10 -10 0 -5
-21 -10 -47 -10 -120 1 -210 122 -173 234 10 32 13 34 44 29 43 -7 76 11 76
42 0 31 -20 43 -36 21 -6 -9 -15 -13 -18 -8 -7 12 18 34 69 61 49 26 131 28
193 4z m3038 -125 l153 -101 -42 -61 c-23 -33 -44 -63 -47 -67 -3 -4 -41 -12
-84 -18 l-80 -11 -95 62 c-130 84 -126 79 -101 111 l21 27 42 -28 c23 -16 47
-32 53 -35 12 -7 74 78 74 100 0 6 -22 25 -50 43 -48 31 -49 32 -34 56 9 13
21 24 27 24 6 0 79 -46 163 -102z m-4280 82 c24 0 33 -5 37 -21 5 -20 10 -21
54 -14 26 4 51 12 54 17 4 7 9 7 13 0 10 -17 68 -23 225 -23 83 0 153 -4 156
-10 4 -5 19 -9 35 -9 31 0 60 -22 60 -46 0 -23 -28 -71 -45 -78 -19 -7 -498 2
-540 10 -32 7 -80 38 -106 68 -16 20 -16 20 -23 -2 -4 -12 -2 -30 4 -42 10
-18 8 -20 -20 -20 -28 0 -30 2 -30 40 0 22 -4 40 -10 40 -5 0 -10 7 -10 15 0
8 6 15 13 15 6 0 23 16 36 36 19 27 30 34 45 30 12 -3 35 -6 52 -6z m-1102
-182 c21 -30 21 -31 -14 -52 -30 -17 -31 -17 -50 6 -19 23 -19 23 6 46 31 28
39 28 58 0z m5125 -95 c37 -32 102 -85 144 -118 42 -33 76 -62 77 -65 0 -12
-91 -115 -107 -121 -10 -4 -50 -10 -89 -14 l-71 -7 -85 69 c-47 37 -94 73
-104 79 -15 9 -8 22 72 122 49 62 90 112 92 112 2 0 34 -26 71 -57z m-3909
-18 c118 -7 297 -16 398 -20 l182 -8 0 -63 c0 -60 -6 -74 -24 -57 -4 4 -84 8
-179 10 -95 2 -201 7 -237 13 -36 5 -104 9 -152 9 -59 0 -96 5 -117 15 -16 9
-45 16 -64 16 -35 0 -97 18 -97 27 0 3 5 23 12 45 10 36 14 39 37 33 14 -3
123 -12 241 -20z m3155 -13 c62 -22 135 -60 135 -70 0 -4 -25 -20 -55 -37 -30
-16 -55 -33 -55 -37 0 -4 21 -8 48 -8 l47 -1 -47 -25 c-54 -27 -62 -51 -20
-56 25 -3 18 -10 -81 -88 -59 -47 -114 -86 -121 -88 -8 -2 -19 11 -25 29 -10
28 -8 35 8 50 28 26 64 89 56 97 -4 4 -22 -11 -41 -32 l-34 -39 0 31 c0 25 4
32 20 32 18 0 47 36 37 47 -3 2 -18 -4 -33 -13 l-27 -18 7 44 c4 24 12 50 18
58 9 10 9 15 -1 21 -17 11 -1 42 42 89 35 37 52 38 122 14z m-2377 -117 l-3
-50 -69 -3 -68 -3 7 53 c8 59 16 68 62 68 17 0 35 5 39 12 15 23 35 -26 32
-77z m-925 -12 c26 -13 27 -16 14 -36 -11 -17 -22 -21 -56 -18 -48 3 -71 -11
-71 -44 0 -12 -9 -30 -20 -40 -20 -18 -20 -17 -20 54 0 102 8 114 73 106 29
-4 65 -14 80 -22z m-791 -79 c51 -52 94 -99 94 -102 1 -4 -59 -65 -134 -135
l-135 -129 -64 64 c-36 34 -78 80 -95 102 l-31 38 134 129 c74 70 135 128 136
129 1 0 44 -43 95 -96z m4848 -187 c0 -4 -19 -7 -42 -6 -46 2 -62 14 -208 147
l-65 60 24 25 23 26 134 -122 c74 -67 134 -126 134 -130z m-3713 237 c-3 -3
-12 -4 -19 -1 -8 3 -5 6 6 6 11 1 17 -2 13 -5z m183 -4 c0 -5 -7 -7 -15 -4 -8
4 -15 8 -15 10 0 2 7 4 15 4 8 0 15 -4 15 -10z m2915 -20 c-3 -5 -12 -10 -18
-10 -7 0 -6 4 3 10 19 12 23 12 15 0z m-2815 -24 c0 -24 -15 -26 -28 -5 -11
16 -9 19 8 19 11 0 20 -6 20 -14z m660 -65 c0 -89 -8 -96 -114 -95 -45 0 -98
4 -118 8 l-38 7 0 71 0 70 28 -8 c33 -10 159 -6 199 6 15 4 31 9 36 9 4 1 7
-30 7 -68z m2609 -312 l-100 -97 -134 137 -134 136 102 97 102 97 133 -137
132 -137 -101 -96z m-3020 252 l33 -1 -6 -77 c-10 -115 -7 -110 -76 -109 l-60
1 0 45 c0 25 3 69 6 97 7 52 7 52 38 48 17 -2 46 -4 65 -4z m-1524 -21 c23
-25 20 -30 -124 -180 l-110 -115 -1 48 c0 48 1 50 102 158 56 60 105 109 109
109 3 0 14 -9 24 -20z m2235 10 c0 -5 -5 -10 -11 -10 -5 0 -7 5 -4 10 3 6 8
10 11 10 2 0 4 -4 4 -10z m-1400 -52 c281 -13 403 -13 467 -1 l52 9 -6 -45
c-3 -25 -10 -49 -16 -52 -5 -4 -55 -10 -111 -13 -55 -4 -113 -12 -129 -18 -20
-8 -31 -7 -42 2 -25 21 -191 31 -223 14 -31 -16 -92 -19 -92 -4 0 6 -25 10
-56 10 -49 0 -55 -2 -44 -15 17 -20 7 -19 -40 5 -48 24 -52 30 -35 53 14 19
32 22 80 12 29 -7 29 -6 -10 20 -56 39 -65 49 -35 40 14 -4 122 -12 240 -17z
m-691 -89 c56 -45 103 -84 105 -88 5 -7 -219 -284 -233 -289 -13 -4 -119 85
-125 106 -2 9 -7 49 -11 87 l-6 70 78 97 c43 53 81 97 85 97 4 1 52 -35 107
-80z m1577 55 c20 -13 38 -15 95 -10 40 4 82 12 95 16 20 8 24 6 23 -8 -2 -29
-17 -78 -18 -60 0 9 -5 20 -11 23 -6 3 -7 -1 -4 -9 4 -10 1 -16 -10 -16 -8 0
-20 -8 -25 -19 -6 -10 -22 -22 -36 -25 -36 -9 -34 -44 3 -48 17 -2 4 -7 -35
-12 -51 -6 -67 -5 -92 10 -28 17 -30 21 -33 92 -4 92 0 97 48 66z m2272 -173
l22 -30 -27 -20 c-28 -23 -44 -17 -65 22 -8 17 -6 23 13 38 31 24 32 24 57
-10z m-3693 -3 c32 -14 31 -20 -5 -73 -16 -24 -30 -47 -30 -52 0 -7 94 -73
104 -73 2 0 18 23 36 50 18 28 36 50 40 50 4 0 18 -8 30 -18 l23 -18 -103
-155 c-57 -85 -104 -156 -106 -157 -2 -3 -66 38 -131 83 -2 1 -9 37 -18 80
l-15 79 71 108 c40 59 73 108 75 108 2 0 15 -5 29 -12z m1892 -64 c-38 -35
-42 -29 -10 12 15 21 29 31 31 24 3 -7 -7 -23 -21 -36z m-501 16 c6 -6 47 -13
92 -17 67 -5 82 -9 82 -22 0 -23 -20 -41 -43 -41 -11 0 -21 -9 -24 -21 -4 -14
-12 -19 -24 -16 -11 3 -29 -3 -41 -13 -18 -14 -28 -15 -50 -8 -24 9 -28 15
-28 48 0 47 10 100 19 100 4 0 12 -5 17 -10z m-153 -52 c9 -31 -4 -108 -17
-108 -6 0 -31 6 -56 14 -42 12 -45 16 -48 51 -5 59 1 65 62 65 47 0 54 -3 59
-22z m-949 -120 c20 -65 38 -118 40 -118 2 0 18 25 35 55 l32 56 29 -18 30
-17 -39 -71 c-21 -38 -62 -114 -91 -168 -36 -67 -56 -95 -64 -89 -6 5 -59 35
-119 66 l-107 57 41 72 c22 40 47 87 55 105 16 35 27 38 64 17 14 -8 28 -14
31 -15 4 0 0 27 -9 59 -15 56 -15 62 3 100 10 23 22 38 26 34 4 -4 23 -61 43
-125z m3184 -103 c45 -91 81 -165 79 -165 -1 0 -38 11 -82 25 -44 14 -85 25
-91 25 -6 0 -23 -41 -38 -92 -19 -60 -31 -87 -36 -77 -65 122 -169 323 -167
324 1 1 17 9 35 18 38 18 38 17 88 -85 16 -32 32 -58 36 -58 4 0 10 16 14 35
7 38 10 40 50 25 15 -6 29 -8 31 -6 3 3 -14 39 -36 82 -23 42 -40 78 -39 79 7
5 64 34 68 35 3 0 42 -74 88 -165z m-1568 136 c0 -12 -11 -23 -30 -30 -33 -11
-33 -5 -2 32 20 22 32 22 32 -2z m-517 -73 c12 -7 47 -15 77 -18 48 -4 55 -8
58 -29 4 -23 2 -23 -45 -17 -128 17 -123 15 -123 47 0 33 2 34 33 17z m491 -2
c-10 -8 -21 -12 -24 -10 -5 6 21 24 34 24 6 0 1 -6 -10 -14z m-87 -22 c-3 -3
-12 -4 -19 -1 -8 3 -5 6 6 6 11 1 17 -2 13 -5z m1396 -186 c37 -94 64 -174 60
-179 -4 -4 -36 -19 -71 -33 l-63 -25 -73 36 -73 36 -49 116 c-27 64 -50 118
-52 122 -1 3 13 10 32 16 l34 11 23 -59 c24 -66 21 -65 104 -28 l44 19 -26 57
c-25 54 -25 57 -8 70 40 29 48 18 118 -159z m-2345 47 c95 -30 122 -43 119
-55 -14 -45 -116 -333 -121 -337 -2 -3 -39 5 -80 17 l-75 23 -31 64 c-16 36
-30 69 -30 73 0 4 18 10 39 12 39 3 40 2 62 -44 12 -27 28 -49 36 -49 7 -1 18
-2 24 -3 13 -1 42 71 34 84 -3 4 -27 13 -55 20 -28 7 -53 16 -56 21 -3 5 0 25
6 43 l11 34 60 -20 c33 -11 62 -19 64 -17 2 2 6 16 10 30 6 25 3 27 -72 49
-112 33 -114 34 -101 71 6 16 16 29 22 27 6 -2 67 -21 134 -43z m2059 -157
c28 -95 51 -174 49 -175 -1 -1 -53 26 -116 61 -63 36 -116 60 -118 55 -3 -8
28 -133 43 -170 4 -11 -4 -18 -30 -26 -19 -6 -37 -8 -39 -5 -2 4 -17 52 -34
107 -17 55 -41 135 -55 178 -14 42 -22 77 -18 77 3 0 58 -29 121 -64 63 -35
116 -63 118 -61 3 3 -32 127 -45 161 -5 14 27 32 57 33 11 1 29 -47 67 -171z
m-1858 103 c11 -7 10 -23 -6 -95 -11 -47 -18 -86 -16 -86 2 0 18 7 34 16 33
17 53 9 64 -27 10 -31 22 -22 29 21 3 22 11 63 17 89 l10 50 37 -6 c20 -3 39
-7 40 -9 4 -2 -77 -356 -83 -362 -1 -1 -24 32 -50 75 -27 43 -50 80 -51 82 -2
2 -38 -19 -81 -47 -43 -27 -79 -46 -81 -42 -3 8 66 329 74 342 7 11 45 10 63
-1z m1551 -181 c17 -91 34 -175 36 -186 5 -20 -1 -23 -77 -37 l-83 -15 -63 45
c-35 25 -63 47 -63 49 0 2 14 13 31 23 l31 19 44 -28 c29 -18 52 -26 69 -22
23 4 25 8 20 36 -14 68 -9 65 -78 50 -34 -7 -63 -12 -64 -11 0 1 -4 18 -8 38
l-7 36 61 12 c55 11 61 14 61 37 0 13 -6 27 -13 30 -7 2 -54 -4 -104 -14 l-91
-19 -6 30 c-3 17 -4 33 -1 36 5 5 267 60 272 57 1 0 16 -75 33 -166z m-865
-30 c-2 -3 5 -7 16 -7 17 -2 19 5 19 58 l0 59 36 0 35 0 -6 -77 c-3 -43 -8
-125 -10 -183 -1 -58 -3 -109 -4 -113 -1 -5 -31 -6 -68 -3 -38 3 -96 5 -131 6
l-63 0 2 126 1 126 44 -4 c24 -2 44 -1 44 2 0 3 -18 24 -40 45 -37 36 -40 43
-40 93 l0 53 85 -87 c46 -48 82 -90 80 -94z m-388 146 c1 -1 -2 -31 -8 -65 -5
-35 -9 -65 -7 -66 2 -1 33 -5 71 -8 l67 -6 0 33 c0 18 3 48 6 66 6 29 9 31 37
26 17 -3 32 -8 34 -9 1 -2 -4 -44 -11 -93 -8 -49 -20 -133 -27 -187 -10 -80
-15 -96 -28 -93 -9 3 -42 8 -74 12 -65 7 -67 9 -121 87 l-38 56 11 103 c19
165 18 160 54 152 18 -3 33 -7 34 -8z m787 -168 c4 -79 9 -164 12 -189 l6 -47
-99 -6 c-54 -4 -113 -8 -130 -11 -42 -5 -41 3 2 45 34 33 47 38 118 39 l38 1
-3 48 -3 47 -62 -3 -63 -4 0 40 c0 25 5 40 13 39 6 0 34 1 61 1 l49 2 -7 60
c-8 71 -4 80 33 80 l28 0 7 -142z m156 3 c0 -42 -13 -51 -76 -51 -28 0 -32 4
-37 33 -2 17 -3 34 0 37 2 2 25 7 51 11 26 3 50 7 55 8 4 0 7 -16 7 -38z"/>
<path d="M4060 7405 l0 -45 60 0 60 0 0 45 0 45 -60 0 -60 0 0 -45z"/>
<path d="M4377 7408 c-16 -58 -11 -65 53 -75 35 -6 63 -6 66 -1 3 5 -7 26 -22
46 -15 20 -28 38 -29 39 -1 2 -15 6 -32 9 -26 5 -31 2 -36 -18z"/>
<path d="M2673 7158 c-20 -10 -20 -12 -6 -47 8 -20 16 -37 18 -39 6 -7 115 42
115 52 0 11 -75 47 -95 45 -6 0 -20 -5 -32 -11z"/>
<path d="M5545 7040 c-22 -42 -20 -47 33 -74 l48 -24 23 40 c12 22 21 41 19
43 -9 8 -89 45 -97 45 -6 0 -17 -13 -26 -30z"/>
<path d="M5821 6891 c-12 -16 -21 -32 -21 -35 0 -9 103 -75 111 -71 13 9 -12
100 -33 118 -27 23 -33 22 -57 -12z"/>
<path d="M6041 6651 c-40 -50 -70 -94 -67 -99 11 -18 85 -64 94 -58 5 3 28 30
52 60 39 52 42 59 36 103 -3 26 -14 55 -24 66 -19 18 -21 17 -91 -72z"/>
<path d="M1677 6512 l-37 -38 78 -84 79 -84 45 39 45 39 -76 83 c-41 46 -80
83 -86 83 -6 0 -28 -17 -48 -38z"/>
<path d="M6355 6370 l-80 -80 43 -42 42 -43 82 82 82 83 -39 40 c-21 22 -42
40 -45 40 -3 0 -41 -36 -85 -80z"/>
<path d="M1435 6203 c-37 -4 -75 -26 -75 -44 0 -4 39 -40 87 -80 l87 -71 38
43 c20 24 38 47 38 50 0 6 -127 110 -132 107 -2 -1 -21 -3 -43 -5z"/>
<path d="M1246 5949 c-43 -10 -76 -34 -76 -55 0 -11 50 -54 64 -54 10 0 75
103 70 112 -6 9 -5 9 -58 -3z"/>
<path d="M4958 5802 c-21 -10 -38 -20 -38 -25 0 -8 70 19 85 34 13 13 -3 10
-47 -9z"/>
<path d="M5105 5800 c-37 -5 -16 -7 78 -8 79 -1 127 2 127 8 0 11 -124 11
-205 0z"/>
<path d="M5003 5783 c9 -2 23 -2 30 0 6 3 -1 5 -18 5 -16 0 -22 -2 -12 -5z"/>
<path d="M5115 5759 c-64 -13 -183 -57 -156 -58 13 -1 62 8 110 20 66 16 104
20 164 15 48 -3 77 -2 77 5 0 5 -6 11 -12 13 -31 10 -147 13 -183 5z"/>
<path d="M4755 5743 c-122 -22 -133 -25 -112 -30 24 -6 145 15 182 32 37 16
30 16 -70 -2z"/>
<path d="M1028 5660 c-16 -28 -28 -52 -28 -53 0 -6 80 -40 83 -36 2 2 15 25
29 51 l26 47 -35 21 c-19 11 -37 20 -41 20 -4 0 -19 -23 -34 -50z"/>
<path d="M7123 5380 l-42 -19 26 -60 c14 -33 30 -58 35 -55 5 4 18 26 29 51
16 37 17 48 6 73 l-12 29 -42 -19z"/>
<path d="M5686 3988 c-22 -31 -8 -43 20 -17 13 12 24 26 24 31 0 16 -29 7 -44
-14z"/>
<path d="M678 4512 c-24 -17 -38 -35 -38 -49 0 -13 0 -26 0 -30 -1 -11 72 -25
81 -16 4 5 10 34 14 66 9 67 0 71 -57 29z"/>
<path d="M3420 4293 c0 -5 16 -32 34 -61 23 -36 39 -77 47 -122 7 -38 15 -67
19 -65 4 3 16 -34 25 -80 10 -47 22 -85 27 -85 13 0 -1 157 -19 215 -20 65
-68 160 -93 185 -20 20 -40 26 -40 13z"/>
<path d="M3766 3318 c-32 -51 -79 -158 -73 -165 15 -15 43 15 79 85 34 66 40
102 17 102 -5 0 -15 -10 -23 -22z"/>
<path d="M616 4174 c-3 -30 -4 -60 -1 -65 4 -5 26 -9 51 -9 l44 0 0 65 0 65
-44 0 -43 0 -7 -56z"/>
<path d="M7358 3931 l-3 -59 40 -5 c21 -3 43 -3 47 -1 4 3 8 32 8 65 l0 59
-44 0 -44 0 -4 -59z"/>
<path d="M7335 3633 c-3 -27 -8 -56 -10 -65 -5 -27 22 -22 66 14 64 52 51 97
-28 98 -18 0 -23 -7 -28 -47z"/>
<path d="M902 2837 c-6 -7 -18 -30 -27 -50 -13 -31 -13 -42 -3 -66 l13 -29 43
19 42 18 -20 52 c-23 63 -33 74 -48 56z"/>
<path d="M3373 2649 c-7 -7 -9 -31 -6 -64 l6 -54 -42 -11 c-22 -6 -41 -15 -41
-19 0 -19 32 -33 72 -33 59 1 81 28 72 91 -11 78 -36 115 -61 90z"/>
<path d="M4146 2142 c-4 -7 -25 -16 -46 -22 -48 -13 -55 -36 -8 -26 31 6 31 6
13 -14 -27 -29 -5 -24 34 9 27 22 32 31 24 46 -7 11 -13 14 -17 7z"/>
<path d="M4118 2048 c-16 -5 -28 -14 -28 -18 0 -8 67 15 79 26 8 7 -24 3 -51
-8z"/>
<path d="M6966 2466 c-14 -25 -26 -47 -26 -50 0 -3 18 -15 40 -26 l39 -20 17
27 c50 81 50 76 -5 99 -18 8 -35 14 -36 14 -2 0 -15 -20 -29 -44z"/>
<path d="M3534 2286 c-27 -20 -14 -51 24 -54 30 -3 32 -1 32 26 0 34 -28 48
-56 28z"/>
<path d="M6812 2209 c-47 -72 -44 -77 41 -63 28 5 42 14 52 34 13 25 12 28
-13 47 -15 10 -32 22 -37 25 -6 4 -25 -16 -43 -43z"/>
<path d="M6512 2024 c-18 -24 -31 -48 -28 -53 3 -4 30 -27 61 -51 52 -40 58
-42 105 -38 34 4 56 11 65 24 13 17 11 22 -19 49 -67 61 -135 115 -143 115 -4
-1 -23 -21 -41 -46z"/>
<path d="M1597 1797 l-88 -82 46 -45 45 -44 82 79 c45 44 85 81 87 83 3 1 -15
22 -39 47 l-45 44 -88 -82z"/>
<path d="M6237 1730 l-42 -39 80 -81 c44 -44 83 -80 88 -80 9 0 77 71 77 80 0
8 -147 160 -154 160 -4 0 -26 -18 -49 -40z"/>
<path d="M1916 1529 c-46 -58 -48 -64 -44 -111 3 -31 13 -57 25 -70 20 -20 20
-20 83 59 35 43 68 84 74 92 8 11 1 22 -33 52 -24 22 -46 39 -50 39 -3 0 -28
-28 -55 -61z"/>
<path d="M2125 1244 c9 -62 13 -70 41 -88 23 -16 24 -15 50 24 15 22 25 42 23
43 -29 23 -103 67 -111 67 -7 0 -8 -16 -3 -46z"/>
<path d="M2377 1095 c-9 -20 -17 -38 -17 -40 0 -7 86 -55 98 -55 11 0 42 50
42 69 0 9 -82 61 -97 61 -5 0 -17 -16 -26 -35z"/>
<path d="M5278 948 c-27 -11 -48 -26 -48 -32 0 -12 75 -46 101 -46 8 0 23 6
33 13 16 11 16 15 1 50 -17 42 -22 43 -87 15z"/>
<path d="M3960 750 c-8 -5 -12 -11 -9 -14 2 -3 11 -1 19 4 8 5 12 11 9 14 -2
3 -11 1 -19 -4z"/>
<path d="M3849 698 c0 -7 -2 -30 -5 -50 l-5 -38 66 0 c55 0 65 3 66 18 5 85
11 77 -58 80 -46 2 -63 -1 -64 -10z"/>
<path d="M3530 727 c0 -26 55 -86 84 -93 34 -7 46 6 46 54 0 36 -3 38 -77 47
-41 4 -53 3 -53 -8z"/>
</g>
</svg>
